<?xml version="1.0" encoding="UTF-8" standalone="no"?>
<svg
   version="1.1"
   viewBox="0 0 364.79999 485.66929"
   id="svg503"
   sodipodi:docname="BlankPanelSanta.svg"
   inkscape:version="1.1.1 (3bf5ae0d25, 2021-09-20)"
   width="96.519997mm"
   height="128.5mm"
   xmlns:inkscape="http://www.inkscape.org/namespaces/inkscape"
   xmlns:sodipodi="http://sodipodi.sourceforge.net/DTD/sodipodi-0.dtd"
   xmlns="http://www.w3.org/2000/svg"
   xmlns:svg="http://www.w3.org/2000/svg">
  <sodipodi:namedview
     id="namedview505"
     pagecolor="#ffffff"
     bordercolor="#666666"
     borderopacity="1.0"
     inkscape:pageshadow="2"
     inkscape:pageopacity="0.0"
     inkscape:pagecheckerboard="0"
     showgrid="false"
     inkscape:zoom="3.2791903"
     inkscape:cx="157.66087"
     inkscape:cy="297.02454"
     inkscape:window-width="3840"
     inkscape:window-height="2054"
     inkscape:window-x="-11"
     inkscape:window-y="-11"
     inkscape:window-maximized="1"
     inkscape:current-layer="svg503"
     inkscape:document-units="mm"
     units="mm"
     height="128.5mm" />
  <defs
     id="defs285">
    <filter
       id="e"
       x="-0.31462676"
       y="-0.34689126"
       width="1.6292535"
       height="1.6937825"
       color-interpolation-filters="sRGB">
      <feGaussianBlur
         stdDeviation="2.84711"
         id="feGaussianBlur258" />
    </filter>
    <linearGradient
       id="d"
       x1="597.78998"
       x2="629.83002"
       y1="215.60001"
       y2="223.03"
       gradientUnits="userSpaceOnUse">
      <stop
         stop-color="#9e220d"
         offset="0"
         id="stop261" />
      <stop
         stop-color="#ec330d"
         offset="1"
         id="stop263" />
    </linearGradient>
    <linearGradient
       id="c"
       x1="608.62"
       x2="580.13"
       y1="197.16"
       y2="255.14"
       gradientUnits="userSpaceOnUse">
      <stop
         stop-color="#d4392d"
         offset="0"
         id="stop266" />
      <stop
         stop-color="#881900"
         offset="1"
         id="stop268" />
    </linearGradient>
    <linearGradient
       id="b"
       x1="374.5"
       x2="419.07001"
       y1="363.97"
       y2="367.89999"
       gradientUnits="userSpaceOnUse">
      <stop
         stop-color="#fba220"
         offset="0"
         id="stop271" />
      <stop
         stop-color="#f9efe9"
         offset=".2818"
         id="stop273" />
      <stop
         stop-color="#f7c97a"
         offset=".57881"
         id="stop275" />
      <stop
         stop-color="#f3f1d4"
         offset="1"
         id="stop277" />
    </linearGradient>
    <radialGradient
       id="a"
       cx="530.08002"
       cy="276.82001"
       r="10.859"
       gradientTransform="matrix(1,7.3477e-8,-6.6641999e-8,0.90698,1.8448e-5,25.75)"
       gradientUnits="userSpaceOnUse">
      <stop
         stop-color="#d43800"
         offset="0"
         id="stop280" />
      <stop
         stop-color="#d40000"
         stop-opacity="0"
         offset="1"
         id="stop282" />
    </radialGradient>
    <clipPath
       clipPathUnits="userSpaceOnUse"
       id="clipPath6677">
      <rect
         style="fill-rule:evenodd;stroke-width:1.38214"
         id="rect6679"
         width="484.76331"
         height="313.86267"
         x="232.60442"
         y="225.76456"
         transform="rotate(-13.877578)" />
    </clipPath>
  </defs>
  <g
     transform="matrix(0.996075,0.24609,-0.24609,0.996075,-332.27843,-68.184928)"
     id="g501"
     clip-path="url(#clipPath6677)">
    <path
       transform="matrix(0.79577,0,0,0.54327,236.3,29.89)"
       d="m 629.83,223.03 c 0,29.01 -15.942,52.528 -35.608,52.528 -19.666,0 -35.608,-23.518 -35.608,-52.528 0,-29.01 15.942,-52.528 35.608,-52.528 19.666,0 35.608,23.518 35.608,52.528 z"
       id="path287" />
    <path
       d="m 530.32,207.87 c 21.367,-93.36 90.538,-102.57 160.61,-73.236 l -2.5254,6.566 c -65.956,16.969 -67.583,53.113 -70.711,75.256 l -87.378,-8.5863 z"
       fill-rule="evenodd"
       stroke="#000000"
       id="path289" />
    <path
       d="m 533.33,205.78 c 19.965,-87.263 86.617,-99.435 152.09,-72.016 l -3.3698,7.1551 c -61.627,15.861 -64.158,52.188 -67.08,72.886 l -81.644,-8.0255 z"
       fill="#d40000"
       fill-rule="evenodd"
       stroke="#d40000"
       stroke-width="0.93453"
       id="path291" />
    <path
       d="m 625.9,121.48 c -19.064,0.23408 -36.793,5.1342 -51.79,15.655 34.62,-17.515 78.391,-14.235 108.55,-0.42067 l -1.0002,2.3738 c -62.846,5.2171 -77.854,50.054 -81.044,69.802 l 15.127,1.4122 c 2.923,-19.75 5.4349,-54.427 67.073,-69.561 l 3.3755,-6.8209 c -20.465,-8.1762 -41.057,-12.676 -60.291,-12.44 z"
       fill="#ff5817"
       fill-rule="evenodd"
       stroke="#ff5324"
       stroke-width="0.91296"
       id="path293" />
    <path
       transform="matrix(0.68234,0,0,0.46583,302.91,46.179)"
       d="m 629.83,223.03 c 0,29.01 -15.942,52.528 -35.608,52.528 -19.666,0 -35.608,-23.518 -35.608,-52.528 0,-29.01 15.942,-52.528 35.608,-52.528 19.666,0 35.608,23.518 35.608,52.528 z"
       fill="#fafafb"
       stroke="#f1f3ed"
       stroke-linecap="round"
       stroke-linejoin="round"
       stroke-width="5.4235"
       id="path295" />
    <path
       transform="matrix(1.843,0,0,1.6475,-482.16,-4.8492)"
       d="m 629.83,223.03 c 0,29.01 -15.942,52.528 -35.608,52.528 -19.666,0 -35.608,-23.518 -35.608,-52.528 0,-29.01 15.942,-52.528 35.608,-52.528 19.666,0 35.608,23.518 35.608,52.528 z"
       fill="#502d16"
       stroke="#000000"
       stroke-width="1.9363"
       id="path297" />
    <g
       transform="matrix(1.1533,0,0,1,-84.405,0)"
       id="g303">
      <path
         d="m 532.86,239.51 h 77.143 a 13.571,27.857 0 0 1 13.571,27.857 v 100 a 13.571,27.857 0 0 1 -13.571,27.857 H 532.86 a 13.571,27.857 0 0 1 -13.571,-27.857 v -100 A 13.571,27.857 0 0 1 532.86,239.51"
         fill="#deb798"
         stroke="#000000"
         stroke-linecap="round"
         stroke-linejoin="round"
         stroke-width="2.9"
         id="path299" />
      <path
         d="m 606.75,238.08 c 5.0611,3.6909 8.6644,14.112 8.6644,26.438 v 100 c 10e-6,15.433 -5.6805,27.844 -12.747,27.844 h -69.83 c 1.2759,0.93047 2.6304,1.4375 4.0532,1.4375 h 72.517 c 7.0665,0 12.747,-12.442 12.747,-27.875 v -100 c 0,-15.433 -5.6805,-27.844 -12.747,-27.844 h -2.6434 z"
         fill="#eed3ca"
         id="path301" />
    </g>
    <path
       transform="matrix(0.56448,0,0,0.40917,291.98,141.12)"
       d="m 629.83,223.03 c 0,29.01 -15.942,52.528 -35.608,52.528 -19.666,0 -35.608,-23.518 -35.608,-52.528 0,-29.01 15.942,-52.528 35.608,-52.528 19.666,0 35.608,23.518 35.608,52.528 z"
       id="path305" />
    <path
       transform="matrix(0.4979,0,0,0.35935,295.58,122.24)"
       d="m 629.83,223.03 c 0,29.01 -15.942,52.528 -35.608,52.528 -19.666,0 -35.608,-23.518 -35.608,-52.528 0,-29.01 15.942,-52.528 35.608,-52.528 19.666,0 35.608,23.518 35.608,52.528 z"
       id="path307" />
    <path
       transform="matrix(0.4979,0,0,0.35935,271.84,124.7)"
       d="m 629.83,223.03 c 0,29.01 -15.942,52.528 -35.608,52.528 -19.666,0 -35.608,-23.518 -35.608,-52.528 0,-29.01 15.942,-52.528 35.608,-52.528 19.666,0 35.608,23.518 35.608,52.528 z"
       id="path309" />
    <path
       transform="matrix(0.4979,0,0,0.35935,249.62,129.75)"
       d="m 629.83,223.03 c 0,29.01 -15.942,52.528 -35.608,52.528 -19.666,0 -35.608,-23.518 -35.608,-52.528 0,-29.01 15.942,-52.528 35.608,-52.528 19.666,0 35.608,23.518 35.608,52.528 z"
       id="path311" />
    <path
       transform="matrix(0.4979,0,0,0.35935,227.9,134.8)"
       d="m 629.83,223.03 c 0,29.01 -15.942,52.528 -35.608,52.528 -19.666,0 -35.608,-23.518 -35.608,-52.528 0,-29.01 15.942,-52.528 35.608,-52.528 19.666,0 35.608,23.518 35.608,52.528 z"
       id="path313" />
    <path
       transform="matrix(0.4979,0,0,0.35935,313.76,139.35)"
       d="m 629.83,223.03 c 0,29.01 -15.942,52.528 -35.608,52.528 -19.666,0 -35.608,-23.518 -35.608,-52.528 0,-29.01 15.942,-52.528 35.608,-52.528 19.666,0 35.608,23.518 35.608,52.528 z"
       id="path315" />
    <path
       transform="matrix(0.47408,0,0,0.35727,345.34,152.49)"
       d="m 629.83,223.03 c 0,29.01 -15.942,52.528 -35.608,52.528 -19.666,0 -35.608,-23.518 -35.608,-52.528 0,-29.01 15.942,-52.528 35.608,-52.528 19.666,0 35.608,23.518 35.608,52.528 z"
       fill="#fafafb"
       stroke="#f1f3ed"
       stroke-linecap="round"
       stroke-linejoin="round"
       stroke-width="5.4235"
       id="path317" />
    <path
       transform="matrix(0.42777,0,0,0.31626,355.19,148.71)"
       d="m 629.83,223.03 c 0,29.01 -15.942,52.528 -35.608,52.528 -19.666,0 -35.608,-23.518 -35.608,-52.528 0,-29.01 15.942,-52.528 35.608,-52.528 19.666,0 35.608,23.518 35.608,52.528 z"
       fill="#fafafb"
       stroke="#f1f3ed"
       stroke-linecap="round"
       stroke-linejoin="round"
       stroke-width="5.4235"
       id="path319" />
    <path
       transform="matrix(0.42777,0,0,0.31626,337.26,132.29)"
       d="m 629.83,223.03 c 0,29.01 -15.942,52.528 -35.608,52.528 -19.666,0 -35.608,-23.518 -35.608,-52.528 0,-29.01 15.942,-52.528 35.608,-52.528 19.666,0 35.608,23.518 35.608,52.528 z"
       fill="#fafafb"
       stroke="#f1f3ed"
       stroke-linecap="round"
       stroke-linejoin="round"
       stroke-width="5.4235"
       id="path321" />
    <path
       transform="matrix(0.42805,0,0,0.30965,313.35,136.14)"
       d="m 629.83,223.03 c 0,29.01 -15.942,52.528 -35.608,52.528 -19.666,0 -35.608,-23.518 -35.608,-52.528 0,-29.01 15.942,-52.528 35.608,-52.528 19.666,0 35.608,23.518 35.608,52.528 z"
       fill="#fafafb"
       stroke="#f1f3ed"
       stroke-linecap="round"
       stroke-linejoin="round"
       stroke-width="5.4235"
       id="path323" />
    <path
       transform="matrix(0.42805,0,0,0.30965,290.62,141.19)"
       d="m 629.83,223.03 c 0,29.01 -15.942,52.528 -35.608,52.528 -19.666,0 -35.608,-23.518 -35.608,-52.528 0,-29.01 15.942,-52.528 35.608,-52.528 19.666,0 35.608,23.518 35.608,52.528 z"
       fill="#fafafb"
       stroke="#f1f3ed"
       stroke-linecap="round"
       stroke-linejoin="round"
       stroke-width="5.4235"
       id="path325" />
    <path
       transform="matrix(0.42805,0,0,0.30965,269.41,145.74)"
       d="m 629.83,223.03 c 0,29.01 -15.942,52.528 -35.608,52.528 -19.666,0 -35.608,-23.518 -35.608,-52.528 0,-29.01 15.942,-52.528 35.608,-52.528 19.666,0 35.608,23.518 35.608,52.528 z"
       fill="#fafafb"
       stroke="#f1f3ed"
       stroke-linecap="round"
       stroke-linejoin="round"
       stroke-width="5.4235"
       id="path327" />
    <path
       transform="matrix(0.86325,0,0,0.57603,18.88,110.72)"
       d="m 629.83,223.03 c 0,29.01 -15.942,52.528 -35.608,52.528 -19.666,0 -35.608,-23.518 -35.608,-52.528 0,-29.01 15.942,-52.528 35.608,-52.528 19.666,0 35.608,23.518 35.608,52.528 z"
       id="path329" />
    <path
       transform="matrix(0.74959,0,0,0.51284,86.698,124.45)"
       d="m 629.83,223.03 c 0,29.01 -15.942,52.528 -35.608,52.528 -19.666,0 -35.608,-23.518 -35.608,-52.528 0,-29.01 15.942,-52.528 35.608,-52.528 19.666,0 35.608,23.518 35.608,52.528 z"
       fill="#fafafb"
       stroke="#f1f3ed"
       stroke-linecap="round"
       stroke-linejoin="round"
       stroke-width="5.4235"
       id="path331" />
    <path
       transform="matrix(0.92313,-0.14412,0.14745,0.90228,-39.331,102.48)"
       d="m 586.89,244.15 c 0.18104,2.5032 -1.5887,4.6878 -3.9528,4.8795 -2.3641,0.19169 -4.4274,-1.6822 -4.6084,-4.1853 -0.18104,-2.5032 1.5887,-4.6878 3.9528,-4.8795 0.96798,-0.0785 1.9325,0.19272 2.7362,0.76936 l -2.4084,3.7631 z"
       id="path333" />
    <path
       transform="matrix(0.92343,0,0,0.63042,38.174,106.2)"
       d="m 629.83,223.03 c 0,29.01 -15.942,52.528 -35.608,52.528 -19.666,0 -35.608,-23.518 -35.608,-52.528 0,-29.01 15.942,-52.528 35.608,-52.528 19.666,0 35.608,23.518 35.608,52.528 z"
       id="path335" />
    <path
       transform="matrix(0.80185,0,0,0.56127,110.42,121.34)"
       d="m 629.83,223.03 c 0,29.01 -15.942,52.528 -35.608,52.528 -19.666,0 -35.608,-23.518 -35.608,-52.528 0,-29.01 15.942,-52.528 35.608,-52.528 19.666,0 35.608,23.518 35.608,52.528 z"
       fill="#fafafb"
       stroke="#f1f3ed"
       stroke-linecap="round"
       stroke-linejoin="round"
       stroke-width="5.4235"
       id="path337" />
    <path
       d="m 603.25,220.49 c 4.2602,5.3763 6.8244,12.264 6.8244,19.764 -10e-6,17.183 -13.441,31.115 -29.988,31.115 -5.9777,0 -11.563,-1.8143 -16.241,-4.9494 5.4997,6.9192 13.823,11.35 23.131,11.351 16.548,0 29.988,-13.965 29.988,-31.148 0,-10.959 -5.4644,-20.585 -13.715,-26.133 z"
       fill="#cccccc"
       id="path339" />
    <path
       transform="matrix(0.98748,-0.15773,0.15773,0.98748,-28.413,97.095)"
       d="m 586.89,244.15 c 0.18104,2.5032 -1.5887,4.6878 -3.9528,4.8795 -2.3641,0.19169 -4.4274,-1.6822 -4.6084,-4.1853 -0.18104,-2.5032 1.5887,-4.6878 3.9528,-4.8795 0.96798,-0.0785 1.9325,0.19272 2.7362,0.76936 l -2.4084,3.7631 z"
       id="path341" />
    <path
       d="m 516.6,214.44 c -4.0883,4.974 -6.5491,11.346 -6.5491,18.286 10e-6,15.898 12.898,28.787 28.778,28.787 5.7366,0 11.097,-1.6786 15.586,-4.579 -5.2779,6.4015 -13.265,10.501 -22.198,10.501 -15.88,0 -28.778,-12.92 -28.778,-28.817 0,-10.139 5.2439,-19.045 13.161,-24.177 z"
       fill="#cccccc"
       id="path343" />
    <path
       transform="matrix(0.37,-0.16196,0.12822,0.29292,199.57,400.64)"
       d="m 629.83,223.03 c 0,29.01 -15.942,52.528 -35.608,52.528 -19.666,0 -35.608,-23.518 -35.608,-52.528 0,-29.01 15.942,-52.528 35.608,-52.528 19.666,0 35.608,23.518 35.608,52.528 z"
       id="path345" />
    <path
       transform="matrix(0.43497,-0.1904,0.1128,0.25768,162.06,436.42)"
       d="m 629.83,223.03 c 0,29.01 -15.942,52.528 -35.608,52.528 -19.666,0 -35.608,-23.518 -35.608,-52.528 0,-29.01 15.942,-52.528 35.608,-52.528 19.666,0 35.608,23.518 35.608,52.528 z"
       id="path347" />
    <path
       transform="matrix(0.31802,-0.13921,0.12822,0.29292,236.07,410.03)"
       d="m 629.83,223.03 c 0,29.01 -15.942,52.528 -35.608,52.528 -19.666,0 -35.608,-23.518 -35.608,-52.528 0,-29.01 15.942,-52.528 35.608,-52.528 19.666,0 35.608,23.518 35.608,52.528 z"
       id="path349" />
    <path
       transform="matrix(0.0828,-0.26354,0.30505,0.09584,338.14,520.48)"
       d="m 629.83,223.03 c 0,29.01 -15.942,52.528 -35.608,52.528 -19.666,0 -35.608,-23.518 -35.608,-52.528 0,-29.01 15.942,-52.528 35.608,-52.528 19.666,0 35.608,23.518 35.608,52.528 z"
       id="path351" />
    <path
       d="m 445.91,354.09 c -3.2883,0.0279 -6.4539,1.311 -8.75,3.8438 -3.5236,3.8868 -3.9216,9.5868 -1.4688,14.281 -5.3712,1.7887 -7.7476,7.7595 -5.2812,13.938 2.1849,5.4729 7.4704,9.4023 12.75,9.9062 2.5054,8.0831 9.3136,13.22 15.406,11.5 4.9597,-1.4002 7.9637,-6.9189 7.7812,-13.344 5.6121,-2.2702 8.3114,-10.097 6.0625,-18.062 -2.0157,-7.1395 -7.3623,-12.08 -12.75,-12.312 -1.5917,-4.2247 -4.9865,-7.4467 -8.8438,-8.8438 -0.23322,-0.0906 -0.45156,-0.17278 -0.6875,-0.25 l -0.13,-0.03 c -1.3444,-0.42587 -2.7312,-0.63654 -4.0938,-0.625 z"
       fill="#e3c0a7"
       id="path353" />
    <path
       d="m 445.88,353.95 c -3.2883,0.0279 -6.4539,1.311 -8.75,3.8438 -0.25502,0.28131 -0.49637,0.57577 -0.71875,0.875 2.0767,-1.5868 4.5891,-2.4155 7.1875,-2.4375 1.3626,-0.0115 2.7493,0.19912 4.0938,0.625 l 0.125,0.0312 c 0.23594,0.0772 0.45429,0.15939 0.6875,0.25 3.8572,1.397 7.2521,4.6191 8.8438,8.8438 5.3877,0.23253 10.734,5.173 12.75,12.312 1.5938,5.6452 0.68322,11.204 -1.9688,14.781 4.3486,-3.0774 6.24,-10.014 4.25,-17.062 -2.0157,-7.1395 -7.3623,-12.08 -12.75,-12.312 -1.5917,-4.2247 -4.9865,-7.4467 -8.8438,-8.8438 -0.23323,-0.0906 -0.45156,-0.17278 -0.6875,-0.25 l -0.125,-0.0312 c -1.3444,-0.42586 -2.7312,-0.63654 -4.0938,-0.625 z m -12.906,19.562 c -0.7372,0.56697 -1.3867,1.2413 -1.9062,2 0.69142,-0.47522 1.4645,-0.87387 2.3125,-1.1562 -0.14673,-0.28083 -0.27998,-0.55633 -0.40625,-0.84375 z m 33.344,21.5 c -0.69295,0.55709 -1.4558,1.0098 -2.2812,1.3438 0.10715,3.7735 -0.90813,7.2212 -2.75,9.7188 3.0795,-2.2025 4.9406,-6.3235 5.0312,-11.062 z"
       fill="#f4e3d7"
       id="path355" />
    <path
       d="m 436.95,359.39 c -2.7684,3.3794 -3.2698,7.937 -1.6661,11.999 0.66344,-0.42814 1.3981,-0.78059 2.2005,-1.0408 -1.8729,-3.4905 -2.087,-7.5408 -0.5344,-10.959 z m -5.0612,16.101 c -2.3426,2.703 -2.9773,6.7945 -1.2575,10.989 2.198,5.361 7.515,9.21 12.826,9.7037 2.5204,7.9178 9.3691,12.95 15.498,11.265 2.8474,-0.78278 5.0458,-2.8984 6.3816,-5.7242 -1.2708,1.5614 -2.9066,2.7129 -4.8412,3.2448 -6.129,1.685 -12.978,-3.347 -15.498,-11.265 -5.311,-0.49366 -10.628,-4.3426 -12.826,-9.7037 -1.2514,-3.0524 -1.2718,-6.0603 -0.28292,-8.5098 z m 40.396,13.408 c -1.0709,1.3392 -2.3965,2.3836 -3.961,2.9999 0.0171,0.5847 -0.0256,1.1474 -0.0629,1.7142 1.7268,-1.0761 3.0935,-2.7049 4.0238,-4.7141 z"
       fill="#b49984"
       id="path357" />
    <path
       transform="matrix(0.84592,0,0,0.54327,-17.31,244.91)"
       d="m 629.83,223.03 c 0,29.01 -15.942,52.528 -35.608,52.528 -19.666,0 -35.608,-23.518 -35.608,-52.528 0,-29.01 15.942,-52.528 35.608,-52.528 19.666,0 35.608,23.518 35.608,52.528 z"
       id="path359" />
    <g
       transform="matrix(-0.95909,-0.18636,0.17968,-0.95555,804.04,958.16)"
       id="g365">
      <path
         transform="matrix(0.70551,0,0,0.49568,15.767,425.03)"
         d="m 629.83,223.03 c 0,29.01 -15.942,52.528 -35.608,52.528 -19.666,0 -35.608,-23.518 -35.608,-52.528 0,-29.01 15.942,-52.528 35.608,-52.528 19.666,0 35.608,23.518 35.608,52.528 z"
         fill="#c43223"
         id="path361" />
      <path
         d="m 438.02,509.74 c 10.674,3.003 18.531,13.116 18.531,25.125 -3e-5,14.372 -11.258,26.031 -25.125,26.031 -1.0294,0 -2.0342,-0.0626 -3.0312,-0.1875 2.1012,0.5914 4.3127,0.90625 6.5938,0.90625 13.867,0 25.125,-11.659 25.125,-26.031 0,-13.31 -9.653,-24.292 -22.094,-25.844 z"
         fill="#d35f5f"
         id="path363" />
    </g>
    <path
       id="path367"
       style="stroke-width:0.602463"
       transform="matrix(0.94618667,-0.2337646,0.2337646,0.94618667,255.28498,16.404554)"
       d="m 134.85742,478.3457 c -11.63854,0.0934 -22.16589,7.96485 -25.06836,19.71289 -3.43996,13.92361 5.13382,28.01949 19.15039,31.48243 14.01658,3.46293 28.16746,-5.01781 31.60743,-18.94141 3.43996,-13.9236 -5.13382,-28.01754 -19.1504,-31.48047 -2.19009,-0.54108 -4.38377,-0.79073 -6.53906,-0.77344 z" />
    <path
       id="path369"
       style="stroke-width:0.472175"
       transform="matrix(0.94618667,-0.2337646,0.2337646,0.94618667,255.28498,16.404554)"
       d="m 112.61914,518.82227 c -4.63859,0.047 -9.05294,1.73191 -12.57617,4.60546 0.18274,0.33288 0.3532,0.67193 0.50781,1.01954 0.16496,0.37085 0.48977,1.20185 0.57227,1.68554 0.0636,0.37277 0.0886,0.7514 0.13281,1.12696 -0.0374,1.34792 0.28416,0.44521 0.62695,1.58398 0.24207,0.80416 0.0998,0.85584 -0.15429,1.59961 -0.11467,0.14172 -0.22909,0.28211 -0.34375,0.42383 -1.898918,2.34687 -0.37884,-4.66014 -2.119145,-2.19336 -0.06861,0.0973 -0.136468,0.19371 -0.205078,0.29101 -0.113655,0.49918 -0.163838,0.51466 -0.02539,0.94336 0.04494,0.0584 0.08798,0.11765 0.126953,0.17969 0.01889,0.0301 -0.07834,-0.025 -0.08984,-0.0586 -0.01799,-0.0526 -0.02324,-0.0782 -0.03711,-0.1211 -0.129123,-0.16764 -0.272654,-0.32562 -0.363281,-0.51562 -0.4617,-0.96801 -0.405509,-0.98813 -0.449219,-1.81836 -0.02068,-0.25079 -0.02807,-0.70577 -0.121094,-0.99414 -0.107267,-0.33255 -0.235726,-0.655 -0.378906,-0.9707 -2.206391,2.45508 -3.864458,5.4818 -4.714844,8.92382 -0.213367,0.86363 -0.36319,1.7273 -0.464843,2.58789 1.91827,2.31245 4.033121,4.47251 5.908203,6.8125 1.037979,1.29534 2.008884,2.64399 2.955074,4.00782 3.0622,4.41386 -0.10751,0.36718 2.16992,3.20507 0.22114,-0.33256 0.0192,-0.0743 0.84961,0.49024 1.22883,0.83538 0.66261,0.42147 2.49414,2.04687 0.57182,0.50747 0.82667,0.75311 1,0.92579 0.15368,0.0469 0.31103,0.11357 0.47266,0.20312 0.21486,0.11904 0.58138,0.12057 0.64648,0.35742 0.88828,3.23337 0.62576,2.63792 -1.64453,2.80469 -0.20873,-0.13782 -0.42395,-0.26737 -0.63476,-0.40234 -0.86979,0.0103 -1.25105,-0.46108 -1.28516,-1.03516 -0.71735,-0.65301 -1.40296,-1.34277 -2.15039,-1.96094 -0.43812,-0.36235 -0.95169,-0.62275 -1.41016,-0.95898 -0.25095,-0.18405 -0.48856,-0.38674 -0.73242,-0.58008 -3.04684,-3.91078 1.05527,1.46795 -2.232417,-3.28906 -0.89707,-1.29799 -1.813903,-2.58533 -2.800781,-3.81641 -1.157324,-1.4437 -2.403132,-2.82233 -3.640626,-4.20703 0.876012,8.32277 6.752043,15.55815 15.228514,17.65234 10.86101,2.68332 21.8766,-4.08949 24.60351,-15.12695 2.72691,-11.03746 -3.8675,-22.16043 -14.72851,-24.84375 -1.35763,-0.33541 -2.71655,-0.52221 -4.0625,-0.57227 -0.31104,-0.0116 -0.62045,-0.0149 -0.92969,-0.0117 z" />
    <path
       id="path371"
       style="stroke-width:0.431777"
       transform="matrix(0.94618667,-0.2337646,0.2337646,0.94618667,255.28498,16.404554)"
       d="m 112.08789,521.01367 c -4.15664,0.0327 -8.11672,1.49306 -11.30859,4.00195 0.14362,0.37826 0.29183,0.81279 0.34375,1.11719 0.0636,0.37277 0.0886,0.7514 0.13281,1.12696 -0.0374,1.34792 0.28416,0.44521 0.62695,1.58398 0.24207,0.80416 0.0998,0.85584 -0.15429,1.59961 -0.11467,0.14172 -0.22909,0.28211 -0.34375,0.42383 -1.898918,2.34687 -0.37884,-4.66014 -2.119145,-2.19336 -0.06861,0.0973 -0.136468,0.19371 -0.205078,0.29101 -0.113655,0.49918 -0.163838,0.51466 -0.02539,0.94336 0.04494,0.0584 0.08798,0.11765 0.126953,0.17969 0.01889,0.0301 -0.07834,-0.025 -0.08984,-0.0586 -0.01799,-0.0526 -0.02324,-0.0782 -0.03711,-0.1211 -0.129123,-0.16764 -0.272654,-0.32562 -0.363281,-0.51562 -0.4617,-0.96801 -0.405509,-0.98813 -0.449219,-1.81836 -0.0026,-0.031 -0.0055,-0.0826 -0.0078,-0.11914 -1.908143,2.19222 -3.350647,4.85335 -4.097656,7.87695 -0.252333,1.02134 -0.412725,2.04357 -0.494141,3.05859 1.612097,1.84758 3.299571,3.63542 4.828125,5.54297 1.037979,1.29534 2.008892,2.64399 2.955082,4.00782 3.0622,4.41386 -0.10751,0.36718 2.16992,3.20507 0.22114,-0.33256 0.0192,-0.0743 0.84961,0.49024 1.22883,0.83538 0.66261,0.42147 2.49414,2.04687 0.57182,0.50747 0.82667,0.75311 1,0.92579 0.15368,0.0469 0.31103,0.11357 0.47266,0.20312 0.21486,0.11904 0.58138,0.12057 0.64648,0.35742 0.87743,3.19388 0.62393,2.65377 -1.57031,2.80078 0.0571,0.0147 0.11254,0.0327 0.16992,0.0469 9.95543,2.45958 20.04162,-3.71015 22.5293,-13.7793 2.48768,-10.06915 -3.56606,-20.22596 -13.52149,-22.68555 -1.24442,-0.30744 -2.49118,-0.4803 -3.7246,-0.52734 -0.27869,-0.0106 -0.55688,-0.0139 -0.83399,-0.0117 z m -18.222656,22.23438 c 1.25324,6.91581 6.323466,12.79044 13.462886,14.68554 -0.18815,-0.1221 -0.37944,-0.24037 -0.56835,-0.36132 -0.86979,0.0103 -1.25105,-0.46108 -1.28516,-1.03516 -0.71735,-0.65301 -1.40296,-1.34277 -2.15039,-1.96094 -0.43812,-0.36235 -0.95169,-0.62275 -1.41016,-0.95898 -0.25095,-0.18405 -0.48856,-0.38674 -0.73242,-0.58008 -3.046844,-3.91078 1.05527,1.46795 -2.232421,-3.28906 -0.89707,-1.29799 -1.813903,-2.58533 -2.800781,-3.81641 -0.733317,-0.91477 -1.503194,-1.80353 -2.283204,-2.68359 z" />
    <path
       transform="matrix(-0.54311,-0.35397,-0.2605,0.40304,882.25,581.56)"
       d="m 629.83,223.03 c 0,29.01 -15.942,52.528 -35.608,52.528 -19.666,0 -35.608,-23.518 -35.608,-52.528 0,-29.01 15.942,-52.528 35.608,-52.528 19.666,0 35.608,23.518 35.608,52.528 z"
       fill="url(#d)"
       id="path373"
       style="fill:url(#d)" />
    <path
       transform="matrix(2.4057,0,0,1.6764,-871.9,18.2)"
       d="m 629.83,223.03 c 0,29.01 -15.942,52.528 -35.608,52.528 -19.666,0 -35.608,-23.518 -35.608,-52.528 0,-29.01 15.942,-52.528 35.608,-52.528 19.666,0 35.608,23.518 35.608,52.528 z"
       id="path375" />
    <path
       transform="matrix(2.3254,0,0,1.6015,-823.93,34.827)"
       d="m 629.83,223.03 c 0,29.01 -15.942,52.528 -35.608,52.528 -19.666,0 -35.608,-23.518 -35.608,-52.528 0,-29.01 15.942,-52.528 35.608,-52.528 19.666,0 35.608,23.518 35.608,52.528 z"
       fill="url(#c)"
       id="path377"
       style="fill:url(#c)" />
    <path
       transform="matrix(0.79577,0,0,0.54327,167.85,247.63)"
       d="m 629.83,223.03 c 0,29.01 -15.942,52.528 -35.608,52.528 -19.666,0 -35.608,-23.518 -35.608,-52.528 0,-29.01 15.942,-52.528 35.608,-52.528 19.666,0 35.608,23.518 35.608,52.528 z"
       id="path379" />
    <path
       transform="matrix(0.72557,0,0,0.48861,179.21,351.95)"
       d="m 629.83,223.03 c 0,29.01 -15.942,52.528 -35.608,52.528 -19.666,0 -35.608,-23.518 -35.608,-52.528 0,-29.01 15.942,-52.528 35.608,-52.528 19.666,0 35.608,23.518 35.608,52.528 z"
       id="path381" />
    <g
       transform="matrix(0.903,-0.59391,0.68288,0.78535,-120.48,205.85)"
       id="g387">
      <path
         transform="matrix(0.70551,0,0,0.49568,15.767,425.03)"
         d="m 629.83,223.03 c 0,29.01 -15.942,52.528 -35.608,52.528 -19.666,0 -35.608,-23.518 -35.608,-52.528 0,-29.01 15.942,-52.528 35.608,-52.528 19.666,0 35.608,23.518 35.608,52.528 z"
         fill="#c43223"
         id="path383" />
      <path
         d="m 438.02,509.74 c 10.674,3.003 18.531,13.116 18.531,25.125 -3e-5,14.372 -11.258,26.031 -25.125,26.031 -1.0294,0 -2.0342,-0.0626 -3.0312,-0.1875 2.1012,0.5914 4.3127,0.90625 6.5938,0.90625 13.867,0 25.125,-11.659 25.125,-26.031 0,-13.31 -9.653,-24.292 -22.094,-25.844 z"
         fill="#d35f5f"
         id="path385" />
    </g>
    <path
       d="m 474.28,390.93 2.1238,18.574 c 48.128,24.307 97.001,25.085 156.45,-9.644 -4.8951,-1.1582 -6.2037,-3.9249 -6.9023,-6.9651 -47.172,24.469 -97.04,31.921 -151.67,-1.9645 z"
       fill="#280b0b"
       fill-rule="evenodd"
       stroke="#280b0b"
       stroke-width="0.9956"
       id="path389" />
    <path
       transform="matrix(0.47482,0,0,0.31975,363.21,304.2)"
       d="m 629.83,223.03 c 0,29.01 -15.942,52.528 -35.608,52.528 -19.666,0 -35.608,-23.518 -35.608,-52.528 0,-29.01 15.942,-52.528 35.608,-52.528 19.666,0 35.608,23.518 35.608,52.528 z"
       id="path391" />
    <path
       transform="matrix(0.47482,0,0,0.31975,382.85,300.33)"
       d="m 629.83,223.03 c 0,29.01 -15.942,52.528 -35.608,52.528 -19.666,0 -35.608,-23.518 -35.608,-52.528 0,-29.01 15.942,-52.528 35.608,-52.528 19.666,0 35.608,23.518 35.608,52.528 z"
       id="path393" />
    <path
       transform="matrix(0.47482,0,0,0.31975,385,313.91)"
       d="m 629.83,223.03 c 0,29.01 -15.942,52.528 -35.608,52.528 -19.666,0 -35.608,-23.518 -35.608,-52.528 0,-29.01 15.942,-52.528 35.608,-52.528 19.666,0 35.608,23.518 35.608,52.528 z"
       id="path395" />
    <path
       transform="matrix(0.36449,0,0,0.20417,422.34,345.76)"
       d="m 629.83,223.03 c 0,29.01 -15.942,52.528 -35.608,52.528 -19.666,0 -35.608,-23.518 -35.608,-52.528 0,-29.01 15.942,-52.528 35.608,-52.528 19.666,0 35.608,23.518 35.608,52.528 z"
       id="path397" />
    <path
       transform="matrix(0.36449,0,0,0.31975,438.06,324.62)"
       d="m 629.83,223.03 c 0,29.01 -15.942,52.528 -35.608,52.528 -19.666,0 -35.608,-23.518 -35.608,-52.528 0,-29.01 15.942,-52.528 35.608,-52.528 19.666,0 35.608,23.518 35.608,52.528 z"
       id="path399" />
    <path
       id="path401"
       style="stroke-width:0.758795"
       transform="matrix(0.94618667,-0.2337646,0.2337646,0.94618667,255.28498,16.404554)"
       d="m 84.074219,484.76172 c -14.570581,0.16504 -27.782176,10.182 -31.462891,25.08008 -4.362329,17.65698 6.3143,35.48462 23.847656,39.8164 7.321479,1.80885 14.677742,0.96993 21.083985,-1.89648 -0.452417,-0.61981 -0.914785,-1.23162 -1.394531,-1.83008 -2.835522,-3.53717 -6.207656,-6.67227 -8.666016,-10.50781 -0.545785,-0.80004 -1.101558,-1.5932 -1.636719,-2.40039 -0.896922,-1.35284 -1.692916,-2.79134 -2.775391,-4.01367 -1.974845,-2.22999 -1.826774,-1.94997 -4.115234,-3.74805 -1.780353,-1.39885 -1.224007,-3.01661 0.210938,-3.01172 0.478315,0.002 1.053933,0.18278 1.673828,0.61328 2.169004,1.50633 4.045148,3.39173 5.597656,5.52344 1.858165,2.5514 0.682207,1.04455 1.998047,3.0293 0.510622,0.7702 1.042901,1.52622 1.564453,2.28906 2.397272,3.73412 5.689766,6.78243 8.451172,10.22851 0.637239,0.79524 1.243363,1.61481 1.839848,2.44141 7.62251,-4.30653 13.53848,-11.64138 15.8125,-20.8457 4.36232,-17.65699 -6.3143,-35.48267 -23.847661,-39.81446 -2.739587,-0.67684 -5.483385,-0.98368 -8.18164,-0.95312 z m 11.445312,33.75976 c 0.575964,-0.0266 1.277983,0.29771 1.91211,1.11914 1.16327,1.50692 2.34014,3.05531 3.119139,4.80665 0.16496,0.37085 0.48977,1.20185 0.57227,1.68554 0.0636,0.37277 0.0886,0.7514 0.13281,1.12696 -0.0374,1.34792 0.28416,0.44521 0.62695,1.58398 0.24207,0.80416 0.0998,0.85584 -0.15429,1.59961 -0.11467,0.14172 -0.22909,0.28211 -0.34375,0.42383 -1.898918,2.34687 -0.37884,-4.66014 -2.119145,-2.19336 -0.06861,0.0973 -0.136468,0.19371 -0.205078,0.29101 -0.113655,0.49918 -0.163838,0.51466 -0.02539,0.94336 0.04494,0.0584 0.08798,0.11765 0.126953,0.17969 0.01889,0.0301 -0.07834,-0.025 -0.08984,-0.0586 -0.01799,-0.0526 -0.02324,-0.0782 -0.03711,-0.1211 -0.129123,-0.16764 -0.272654,-0.32562 -0.363281,-0.51562 -0.4617,-0.96801 -0.405509,-0.98813 -0.449219,-1.81836 -0.02068,-0.25079 -0.02807,-0.70577 -0.121094,-0.99414 -0.61876,-1.91827 -1.898124,-3.53361 -3.109374,-5.10938 -1.207374,-1.57072 -0.572223,-2.89837 0.527343,-2.94922 z" />
    <path
       id="path403"
       style="stroke-width:0.696647"
       transform="matrix(0.94618667,-0.2337646,0.2337646,0.94618667,255.28498,16.404554)"
       d="m 83.554688,487.97852 c -13.377047,0.1516 -25.507424,9.34929 -28.886719,23.02734 -4.00509,16.21102 5.797426,32.57774 21.894531,36.55469 6.759797,1.67007 13.550021,0.88061 19.455078,-1.78711 -5.862489,-5.03995 -8.294599,-11.42457 -12.947266,-16.76367 -1.974845,-2.22999 -1.826774,-1.94997 -4.115234,-3.74805 -1.780353,-1.39885 -1.224007,-3.01661 0.210938,-3.01172 0.478315,0.002 1.053933,0.18278 1.673828,0.61328 2.169004,1.50633 4.045148,3.39173 5.597656,5.52344 1.858165,2.5514 0.682207,1.04455 1.998047,3.0293 0.510622,0.7702 1.042901,1.52622 1.564453,2.28906 2.397272,3.73412 5.689766,6.78243 8.451172,10.22851 0.111166,0.13873 0.218445,0.28002 0.328125,0.41993 6.835813,-3.97803 12.127413,-10.63061 14.181643,-18.94532 4.00509,-16.21102 -5.79743,-32.57774 -21.894534,-36.55468 -2.515172,-0.6214 -5.034489,-0.90308 -7.511718,-0.875 z m 11.964843,30.54296 c 0.575964,-0.0266 1.277983,0.29771 1.91211,1.11914 1.16327,1.50692 2.34014,3.05531 3.119139,4.80665 0.16496,0.37085 0.48977,1.20185 0.57227,1.68554 0.0636,0.37277 0.0886,0.7514 0.13281,1.12696 0.27371,1.46532 0.9197,1.69205 0.47266,3.18359 -0.11467,0.14172 -0.22909,0.28211 -0.34375,0.42383 -1.898918,2.34687 -0.37884,-4.66014 -2.119145,-2.19336 -0.06861,0.0973 -0.136468,0.19371 -0.205078,0.29101 -0.113655,0.49918 -0.163838,0.51466 -0.02539,0.94336 0.04494,0.0584 0.08798,0.11765 0.126953,0.17969 0.01889,0.0301 -0.07834,-0.025 -0.08984,-0.0586 -0.01799,-0.0526 -0.02324,-0.0782 -0.03711,-0.1211 -0.129123,-0.16764 -0.272654,-0.32562 -0.363281,-0.51562 -0.518895,-1.1365 -0.426333,-1.68009 -0.570313,-2.8125 -0.61876,-1.91827 -1.898124,-3.53361 -3.109374,-5.10938 -1.207374,-1.57072 -0.572223,-2.89837 0.527343,-2.94922 z"
       sodipodi:nodetypes="sssccscssscscssssssscccsccsscccsss" />
    <path
       id="path405"
       style="stroke-width:1.02602"
       transform="matrix(0.94618667,-0.2337646,0.2337646,0.94618667,255.28498,16.404554)"
       d="m 82.167969,487.11914 c -12.465766,-0.20302 -24.233918,9.32744 -27.697266,23.3457 -3.958111,16.02087 4.420133,31.87412 18.716797,35.40625 0.812897,0.20084 1.625254,0.35685 2.439453,0.47071 -12.81482,-4.62769 -20.070322,-19.588 -16.339844,-34.6875 3.730479,-15.0995 17.12554,-24.98953 30.621094,-23.11719 -0.773447,-0.27838 -1.564066,-0.51792 -2.376953,-0.71875 -1.787083,-0.44152 -3.582458,-0.67022 -5.363281,-0.69922 z" />
    <path
       transform="matrix(0.56448,0,0,0.40917,267.4,401.86)"
       d="m 629.83,223.03 c 0,29.01 -15.942,52.528 -35.608,52.528 -19.666,0 -35.608,-23.518 -35.608,-52.528 0,-29.01 15.942,-52.528 35.608,-52.528 19.666,0 35.608,23.518 35.608,52.528 z"
       id="path407" />
    <path
       transform="matrix(0.55743,0,0,0.38201,273.79,407)"
       d="m 629.83,223.03 c 0,29.01 -15.942,52.528 -35.608,52.528 -19.666,0 -35.608,-23.518 -35.608,-52.528 0,-29.01 15.942,-52.528 35.608,-52.528 19.666,0 35.608,23.518 35.608,52.528 z"
       fill="#27282c"
       id="path409" />
    <g
       transform="translate(285,-79.286)"
       id="g417">
      <path
         transform="matrix(0.60861,-0.39501,0.29192,0.44977,-101.04,675.7)"
         d="m 629.83,223.03 c 0,29.01 -15.942,52.528 -35.608,52.528 -19.666,0 -35.608,-23.518 -35.608,-52.528 0,-29.01 15.942,-52.528 35.608,-52.528 19.666,0 35.608,23.518 35.608,52.528 z"
         id="path411" />
      <path
         transform="matrix(0.59224,-0.38988,0.28406,0.44393,-91.703,672.53)"
         d="m 629.83,223.03 c 0,29.01 -15.942,52.528 -35.608,52.528 -19.666,0 -35.608,-23.518 -35.608,-52.528 0,-29.01 15.942,-52.528 35.608,-52.528 19.666,0 35.608,23.518 35.608,52.528 z"
         fill="#9e220d"
         id="path413" />
      <path
         d="m 322.56,513.1 c 6.6598,1.6397 12.896,5.971 17.094,12.531 8.2365,12.872 5.4845,29.524 -6.1562,37.188 -4.229,2.784 -9.0544,3.9802 -13.875,3.7812 6.3994,1.5683 13.175,0.68982 18.875,-3.0625 11.641,-7.6633 14.393,-24.347 6.1562,-37.219 -5.238,-8.1859 -13.655,-12.86 -22.094,-13.219 z"
         fill="#f23109"
         id="path415" />
    </g>
    <path
       transform="matrix(0.90216,0,0,0.6159,97.636,354.29)"
       d="m 629.83,223.03 c 0,29.01 -15.942,52.528 -35.608,52.528 -19.666,0 -35.608,-23.518 -35.608,-52.528 0,-29.01 15.942,-52.528 35.608,-52.528 19.666,0 35.608,23.518 35.608,52.528 z"
       id="path419" />
    <g
       transform="matrix(0.97748,0,0,1.0628,14.961,-32.067)"
       id="g425">
      <path
         transform="matrix(0.89089,0,0,0.54103,103.33,372.62)"
         d="m 629.83,223.03 c 0,29.01 -15.942,52.528 -35.608,52.528 -19.666,0 -35.608,-23.518 -35.608,-52.528 0,-29.01 15.942,-52.528 35.608,-52.528 19.666,0 35.608,23.518 35.608,52.528 z"
         fill="#27282c"
         id="path421" />
      <path
         d="m 632.68,465.64 c -0.96061,0 -1.9082,0.0399 -2.8463,0.11763 15.546,1.3016 27.744,13.054 27.744,27.32 0,14.266 -12.198,25.989 -27.744,27.29 0.93813,0.0777 1.8857,0.11763 2.8463,0.11763 16.895,0 30.59,-12.272 30.59,-27.408 0,-15.136 -13.695,-27.437 -30.59,-27.437 z"
         fill="#4c505a"
         id="path423" />
    </g>
    <g
       transform="translate(129.29,50.714)"
       id="g435">
      <path
         transform="rotate(7.1836)"
         d="m 432.79,300.4 h 10.714 a 13.571,14.286 0 0 1 13.571,14.286 13.571,14.286 0 0 1 -13.571,14.286 H 432.79 A 13.571,14.286 0 0 1 419.219,314.686 13.571,14.286 0 0 1 432.79,300.4"
         fill="#280b0b"
         id="path431" />
      <path
         d="m 375,349.5 -2.8438,29.281 42.844,7.5 3.5625,-32.844 -43.56,-3.94 z m 7,6.1562 27.812,2.5 -2.2812,21 -27.34,-4.78 1.81,-18.72 z"
         fill="url(#b)"
         fill-rule="evenodd"
         stroke="#000000"
         id="path433"
         style="fill:url(#b)" />
    </g>
    <path
       d="m 566.69,292.53 c -6.9199,0 -12.942,3.9008 -16.031,9.625 -2.7076,-1.6044 -5.8521,-2.5312 -9.2188,-2.5312 -4.4354,0 -8.4941,1.5955 -11.656,4.25 -2.5487,-1.3646 -5.4453,-2.1562 -8.5312,-2.1562 -10.065,0 -18.25,8.207 -18.25,18.344 0,0.30598 0.0165,0.60393 0.0312,0.90625 -9.0997,1.0287 -16.187,8.7812 -16.188,18.219 0,1.234 0.11294,2.459 0.34375,3.625 -5.5091,2.6302 -9.49,7.9517 -10.281,14.281 -2.0203,2.9562 -3.1875,6.5176 -3.1875,10.375 0,10.137 8.1534,18.375 18.219,18.375 8.0523,0 14.868,-5.2949 17.281,-12.594 0.36346,0.37324 0.7625,0.72144 1.1562,1.0625 -0.19264,1.0679 -0.3125,2.1587 -0.3125,3.2812 0,10.137 8.1846,18.344 18.25,18.344 6.4467,0 12.101,-3.3789 15.344,-8.4688 3.1086,5.6564 9.0988,9.5 15.969,9.5 10.065,0 18.25,-8.2383 18.25,-18.375 0,-1.1065 -0.12599,-2.1972 -0.3125,-3.25 8.2436,-1.762 14.437,-9.1442 14.438,-17.969 0,-1.8012 -0.26937,-3.5424 -0.75,-5.1875 8.4754,-1.5788 14.906,-9.041 14.906,-18.031 0,-3.412 -0.95065,-6.6054 -2.5625,-9.3438 2.2271,-3.045 3.5625,-6.8058 3.5625,-10.875 0,-10.137 -8.1847,-18.375 -18.25,-18.375 -3.3551,0 -6.4861,0.93701 -9.1875,2.5312 -3.3109,-3.4078 -7.9267,-5.5625 -13.031,-5.5625 z"
       id="path437" />
    <path
       transform="matrix(0.28695,0.12834,-0.12757,0.24083,529.06,257.58)"
       d="m 629.83,223.03 c 0,29.01 -15.942,52.528 -35.608,52.528 -19.666,0 -35.608,-23.518 -35.608,-52.528 0,-29.01 15.942,-52.528 35.608,-52.528 19.666,0 35.608,23.518 35.608,52.528 z"
       fill="#e3c0a7"
       id="path439" />
    <path
       transform="matrix(0.34277,0,0,0.29541,450.64,330.64)"
       d="m 629.83,223.03 c 0,29.01 -15.942,52.528 -35.608,52.528 -19.666,0 -35.608,-23.518 -35.608,-52.528 0,-29.01 15.942,-52.528 35.608,-52.528 19.666,0 35.608,23.518 35.608,52.528 z"
       fill="#e3c0a7"
       stroke="#000000"
       stroke-width="3.6516"
       id="path441" />
    <path
       transform="matrix(0.3285,-0.01868,0.01706,0.30004,455.83,338.18)"
       d="m 629.83,223.03 c 0,29.01 -15.942,52.528 -35.608,52.528 -19.666,0 -35.608,-23.518 -35.608,-52.528 0,-29.01 15.942,-52.528 35.608,-52.528 19.666,0 35.608,23.518 35.608,52.528 z"
       fill="#e3c0a7"
       id="path443" />
    <path
       transform="matrix(-0.08412,-0.31809,0.29053,-0.07683,627.9,595.6)"
       d="m 629.83,223.03 c 0,29.01 -15.942,52.528 -35.608,52.528 -19.666,0 -35.608,-23.518 -35.608,-52.528 0,-29.01 15.942,-52.528 35.608,-52.528 19.666,0 35.608,23.518 35.608,52.528 z"
       fill="#e3c0a7"
       id="path445" />
    <path
       transform="matrix(0.47482,0,0,0.31975,382.28,300.96)"
       d="m 629.83,223.03 c 0,29.01 -15.942,52.528 -35.608,52.528 -19.666,0 -35.608,-23.518 -35.608,-52.528 0,-29.01 15.942,-52.528 35.608,-52.528 19.666,0 35.608,23.518 35.608,52.528 z"
       fill="#e3c0a7"
       id="path447" />
    <path
       transform="matrix(0.47482,0,0,0.31975,363.84,304.75)"
       d="m 629.83,223.03 c 0,29.01 -15.942,52.528 -35.608,52.528 -19.666,0 -35.608,-23.518 -35.608,-52.528 0,-29.01 15.942,-52.528 35.608,-52.528 19.666,0 35.608,23.518 35.608,52.528 z"
       fill="#e3c0a7"
       id="path449" />
    <path
       transform="matrix(0.45562,0,0,0.29723,318.04,246.85)"
       d="m 629.83,223.03 c 0,29.01 -15.942,52.528 -35.608,52.528 -19.666,0 -35.608,-23.518 -35.608,-52.528 0,-29.01 15.942,-52.528 35.608,-52.528 19.666,0 35.608,23.518 35.608,52.528 z"
       fill="#fafafb"
       stroke="#f1f3ed"
       stroke-linecap="round"
       stroke-linejoin="round"
       stroke-width="5.4235"
       id="path451" />
    <path
       transform="matrix(0.45562,0,0,0.29723,317.12,267.86)"
       d="m 629.83,223.03 c 0,29.01 -15.942,52.528 -35.608,52.528 -19.666,0 -35.608,-23.518 -35.608,-52.528 0,-29.01 15.942,-52.528 35.608,-52.528 19.666,0 35.608,23.518 35.608,52.528 z"
       fill="#fafafb"
       stroke="#f1f3ed"
       stroke-linecap="round"
       stroke-linejoin="round"
       stroke-width="5.4235"
       id="path453" />
    <path
       transform="matrix(0.45562,0,0,0.29723,302.47,291.43)"
       d="m 629.83,223.03 c 0,29.01 -15.942,52.528 -35.608,52.528 -19.666,0 -35.608,-23.518 -35.608,-52.528 0,-29.01 15.942,-52.528 35.608,-52.528 19.666,0 35.608,23.518 35.608,52.528 z"
       fill="#fafafb"
       stroke="#f1f3ed"
       stroke-linecap="round"
       stroke-linejoin="round"
       stroke-width="5.4235"
       id="path455" />
    <path
       transform="matrix(0.45562,0,0,0.29723,288.54,312.86)"
       d="m 629.83,223.03 c 0,29.01 -15.942,52.528 -35.608,52.528 -19.666,0 -35.608,-23.518 -35.608,-52.528 0,-29.01 15.942,-52.528 35.608,-52.528 19.666,0 35.608,23.518 35.608,52.528 z"
       fill="#fafafb"
       stroke="#f1f3ed"
       stroke-linecap="round"
       stroke-linejoin="round"
       stroke-width="5.4235"
       id="path457" />
    <path
       transform="matrix(0.45562,0,0,0.29723,257.83,311.79)"
       d="m 629.83,223.03 c 0,29.01 -15.942,52.528 -35.608,52.528 -19.666,0 -35.608,-23.518 -35.608,-52.528 0,-29.01 15.942,-52.528 35.608,-52.528 19.666,0 35.608,23.518 35.608,52.528 z"
       fill="#fafafb"
       stroke="#f1f3ed"
       stroke-linecap="round"
       stroke-linejoin="round"
       stroke-width="5.4235"
       id="path459" />
    <path
       transform="matrix(0.45562,0,0,0.29723,221.04,301.43)"
       d="m 629.83,223.03 c 0,29.01 -15.942,52.528 -35.608,52.528 -19.666,0 -35.608,-23.518 -35.608,-52.528 0,-29.01 15.942,-52.528 35.608,-52.528 19.666,0 35.608,23.518 35.608,52.528 z"
       fill="#fafafb"
       stroke="#f1f3ed"
       stroke-linecap="round"
       stroke-linejoin="round"
       stroke-width="5.4235"
       id="path461" />
    <path
       transform="matrix(0.45562,0,0,0.29723,224.26,292.5)"
       d="m 629.83,223.03 c 0,29.01 -15.942,52.528 -35.608,52.528 -19.666,0 -35.608,-23.518 -35.608,-52.528 0,-29.01 15.942,-52.528 35.608,-52.528 19.666,0 35.608,23.518 35.608,52.528 z"
       fill="#fafafb"
       stroke="#f1f3ed"
       stroke-linecap="round"
       stroke-linejoin="round"
       stroke-width="5.4235"
       id="path463" />
    <path
       transform="matrix(0.45562,0,0,0.29723,234.62,272.5)"
       d="m 629.83,223.03 c 0,29.01 -15.942,52.528 -35.608,52.528 -19.666,0 -35.608,-23.518 -35.608,-52.528 0,-29.01 15.942,-52.528 35.608,-52.528 19.666,0 35.608,23.518 35.608,52.528 z"
       fill="#fafafb"
       stroke="#f1f3ed"
       stroke-linecap="round"
       stroke-linejoin="round"
       stroke-width="5.4235"
       id="path465" />
    <path
       transform="matrix(0.45562,0,0,0.29723,250.69,253.21)"
       d="m 629.83,223.03 c 0,29.01 -15.942,52.528 -35.608,52.528 -19.666,0 -35.608,-23.518 -35.608,-52.528 0,-29.01 15.942,-52.528 35.608,-52.528 19.666,0 35.608,23.518 35.608,52.528 z"
       fill="#fafafb"
       stroke="#f1f3ed"
       stroke-linecap="round"
       stroke-linejoin="round"
       stroke-width="5.4235"
       id="path467" />
    <path
       transform="matrix(0.45562,0,0,0.29723,271.04,250.71)"
       d="m 629.83,223.03 c 0,29.01 -15.942,52.528 -35.608,52.528 -19.666,0 -35.608,-23.518 -35.608,-52.528 0,-29.01 15.942,-52.528 35.608,-52.528 19.666,0 35.608,23.518 35.608,52.528 z"
       fill="#fafafb"
       stroke="#f1f3ed"
       stroke-linecap="round"
       stroke-linejoin="round"
       stroke-width="5.4235"
       id="path469" />
    <path
       transform="matrix(0.45562,0,0,0.29723,295.69,243.57)"
       d="m 629.83,223.03 c 0,29.01 -15.942,52.528 -35.608,52.528 -19.666,0 -35.608,-23.518 -35.608,-52.528 0,-29.01 15.942,-52.528 35.608,-52.528 19.666,0 35.608,23.518 35.608,52.528 z"
       fill="#fafafb"
       stroke="#f1f3ed"
       stroke-linecap="round"
       stroke-linejoin="round"
       stroke-width="5.4235"
       id="path471" />
    <path
       transform="matrix(0.45562,0,0,0.29723,291.04,263.93)"
       d="m 629.83,223.03 c 0,29.01 -15.942,52.528 -35.608,52.528 -19.666,0 -35.608,-23.518 -35.608,-52.528 0,-29.01 15.942,-52.528 35.608,-52.528 19.666,0 35.608,23.518 35.608,52.528 z"
       fill="#fafafb"
       stroke="#f1f3ed"
       stroke-linecap="round"
       stroke-linejoin="round"
       stroke-width="5.4235"
       id="path473" />
    <path
       transform="matrix(0.45562,0,0,0.29723,277.12,289.29)"
       d="m 629.83,223.03 c 0,29.01 -15.942,52.528 -35.608,52.528 -19.666,0 -35.608,-23.518 -35.608,-52.528 0,-29.01 15.942,-52.528 35.608,-52.528 19.666,0 35.608,23.518 35.608,52.528 z"
       fill="#fafafb"
       stroke="#f1f3ed"
       stroke-linecap="round"
       stroke-linejoin="round"
       stroke-width="5.4235"
       id="path475" />
    <path
       transform="matrix(0.45562,0,0,0.29723,262.83,270)"
       d="m 629.83,223.03 c 0,29.01 -15.942,52.528 -35.608,52.528 -19.666,0 -35.608,-23.518 -35.608,-52.528 0,-29.01 15.942,-52.528 35.608,-52.528 19.666,0 35.608,23.518 35.608,52.528 z"
       fill="#fafafb"
       stroke="#f1f3ed"
       stroke-linecap="round"
       stroke-linejoin="round"
       stroke-width="5.4235"
       id="path477" />
    <path
       transform="matrix(0.45562,0,0,0.29723,249.26,292.86)"
       d="m 629.83,223.03 c 0,29.01 -15.942,52.528 -35.608,52.528 -19.666,0 -35.608,-23.518 -35.608,-52.528 0,-29.01 15.942,-52.528 35.608,-52.528 19.666,0 35.608,23.518 35.608,52.528 z"
       fill="#fafafb"
       stroke="#f1f3ed"
       stroke-linecap="round"
       stroke-linejoin="round"
       stroke-width="5.4235"
       id="path479" />
    <g
       transform="matrix(0.87472,0,0,1,71.338,0)"
       id="g489">
      <path
         transform="matrix(0.44865,0.39034,-0.4292,0.34039,370.06,-30.291)"
         d="m 629.83,223.03 c 0,29.01 -15.942,52.528 -35.608,52.528 -19.666,0 -35.608,-23.518 -35.608,-52.528 0,-29.01 15.942,-52.528 35.608,-52.528 19.666,0 35.608,23.518 35.608,52.528 z"
         fill="#e3c0a7"
         stroke="#000000"
         stroke-width="3.1048"
         id="path481" />
      <path
         d="m 547.5,255.43 c -7.3757,0.18634 -15.532,3.1236 -22.248,8.5457 -11.941,9.6392 -14.758,23.546 -6.2966,31.039 1.211,1.0724 2.5724,1.9572 4.0778,2.6553 l -0.20989,-0.18312 c -8.4612,-7.4933 -5.644,-21.4 6.2966,-31.039 10.213,-8.2445 23.789,-10.709 32.802,-6.5619 -3.6858,-3.1239 -8.8172,-4.5976 -14.422,-4.456 z"
         fill="#eed6cc"
         id="path483" />
      <path
         d="m 567.02,266.91 c -0.35305,6.4465 -4.234,13.549 -11.276,19.204 -12.103,9.72 -28.897,11.495 -37.474,3.9393 -2.2558,-1.9874 -3.6938,-4.4233 -4.4069,-7.1093 -0.25379,4.634 1.3064,8.9042 4.8932,12.064 8.5764,7.556 25.371,5.8114 37.474,-3.9086 8.9199,-7.1634 12.787,-16.664 10.789,-24.19 z"
         fill="#c8b7b7"
         id="path485" />
      <path
         transform="matrix(1.7209,0,0,1.6667,-377.86,-180.5)"
         d="m 540.94,276.82 c 0,5.4394 -4.8618,9.849 -10.859,9.849 -5.9973,0 -10.859,-4.4095 -10.859,-9.849 0,-5.4394 4.8618,-9.849 10.859,-9.849 5.9973,0 10.859,4.4095 10.859,9.849 z"
         fill="url(#a)"
         filter="url(#e)"
         opacity="0.85502"
         id="path487"
         style="fill:url(#a)" />
    </g>
    <path
       d="m 532.86,476.29 -1.7857,7.5 c 2.2619,-4.7786 3.0952,-7.7304 5.3572,-7.8572 l -3.5714,0.35715 z"
       fill-rule="evenodd"
       stroke="#000000"
       id="path491" />
    <path
       d="m 568.68,477.93 0.92757,7.4289 c -1.1749,-4.7333 -1.6078,-7.6572 -2.7827,-7.7827 l 1.8551,0.35377 z"
       fill-rule="evenodd"
       stroke="#000000"
       stroke-width="0.7173"
       id="path493" />
    <path
       d="m 638.1,166.09 5.6074,5.2911 c -4.5126,-2.7545 -6.8287,-4.7653 -8.7894,-3.6304 l 3.182,-1.6606 z"
       fill-rule="evenodd"
       stroke="#000000"
       id="path495" />
    <path
       d="m 566.15,140 -4.5174,-6.2476 c 2.1446,4.8324 3.8373,7.3902 2.4572,9.1867 L 566.1499,140 Z"
       fill-rule="evenodd"
       stroke="#000000"
       id="path497" />
    <path
       d="m 591.44,124.76 -0.11143,-6.1956 c -0.44448,4.1835 -0.46048,6.6493 -1.482,7.2225 l 1.5934,-1.0269 z"
       fill-rule="evenodd"
       stroke="#000000"
       stroke-width="0.618"
       id="path499" />
  </g>
</svg>
